# xmcd CD database file
#
# Track frame offsets:
#	182
#	12977
#	35062
#	51370
#	64992
#	94107
#	129140
#	146392
#	173185
#	196822
#	210340
#
# Disc length: 3156 seconds
#
# Revision: 2
# Processed by: cddbd v1.5.1PL0 Copyright (c) Steve Scherf et al.
# Submitted via: ACXtractor (MTCDDB.DLL V2003.07.15)
#
DISCID=950c520b
DTITLE=Muddy Waters - Muddy Waters In Concert
DYEAR=1999
DGENRE=Blues
TTITLE0=Baby, Please Don't Go
TTITLE1=Soon Forgotten
TTITLE2=Corrina, Corrina
TTITLE3=Hoochie Coochie Man
TTITLE4=Howlin' Wolf
TTITLE5=Floyd's Guitar Blues
TTITLE6=Blow Wind Blow
TTITLE7=Caldonia
TTITLE8=Screamin' and Cryin'
TTITLE9=I Got My Mojo Working
TTITLE10=Garbage Man
EXTD=Part of the "Revue" collection\nREV424 ID3G:   0 YEAR: 1999
EXTT0=
EXTT1=
EXTT2=
EXTT3=
EXTT4=
EXTT5=
EXTT6=
EXTT7=
EXTT8=
EXTT9=
EXTT10=
PLAYORDER=
